<svg width="19" height="14" viewBox="0 0 19 14" fill="none" xmlns="http://www.w3.org/2000/svg">
<path d="M17.758 0.585609C18.1334 0.960687 18.3444 1.46933 18.3444 1.99969C18.3444 2.53006 18.1334 3.0387 17.758 3.41378L7.74406 13.4144C7.36849 13.7894 6.85916 14 6.3281 14C5.79703 14 5.28771 13.7894 4.91213 13.4144L0.906565 9.41415C0.541742 9.03692 0.339873 8.53168 0.344436 8.00726C0.348999 7.48283 0.55963 6.98118 0.930962 6.61034C1.30229 6.2395 1.80462 6.02915 2.32974 6.02459C2.85486 6.02003 3.36077 6.22164 3.7385 6.58598L6.3281 9.17213L14.926 0.585609C15.3016 0.210644 15.8109 0 16.342 0C16.8731 0 17.3824 0.210644 17.758 0.585609Z" fill="white"/>
</svg>
