<svg width="25" height="24" viewBox="0 0 25 24" fill="none" xmlns="http://www.w3.org/2000/svg">
    <path fill-rule="evenodd" clip-rule="evenodd" d="M18.2434 7.70711C18.6339 7.31658 18.6339 6.68342 18.2434 6.29289C17.8529 5.90237 17.2197 5.90237 16.8292 6.29289L12.5363 10.5858L8.24336 6.29289C7.85283 5.90237 7.21967 5.90237 6.82914 6.29289C6.43862 6.68342 6.43862 7.31658 6.82914 7.70711L11.1221 12L6.82914 16.2929C6.43862 16.6834 6.43862 17.3166 6.82914 17.7071C7.21967 18.0976 7.85283 18.0976 8.24336 17.7071L12.5363 13.4142L16.8292 17.7071C17.2197 18.0976 17.8529 18.0976 18.2434 17.7071C18.6339 17.3166 18.6339 16.6834 18.2434 16.2929L13.9505 12L18.2434 7.70711Z" fill="#919191"/>
</svg>
